# xmcd CD database file
#
# Track frame offsets:
#	150
#	20212
#	39045
#	69637
#
# Disc length: 1193 seconds
#
# Revision: 15
# Processed by: cddbd v1.5.1PL2 Copyright (c) Steve Scherf et al.
# Submitted via: CDex 1.51
#
DISCID=2d04a704
DTITLE=倉木麻衣 - Secret of my heart
DYEAR=2000
DGENRE=JPop
TTITLE0=Secret of my heart
TTITLE1=This is your life
TTITLE2=Secret of my heart 〜runnin' around at the ''Village'' Mix〜
TTITLE3=Secret of my heart 〜Instrumental〜
EXTD=YEAR: 2000
EXTT0=
EXTT1=
EXTT2=
EXTT3=
PLAYORDER=
